<svg width="24" height="24" viewBox="0 0 24 24" fill="none" xmlns="http://www.w3.org/2000/svg">
  <path d="M12 2.25C6.62 2.25 2.25 6.62 2.25 12C2.25 17.38 6.62 21.75 12 21.75C12.42 21.75 12.75 21.42 12.75 21C12.75 20.58 12.42 20.25 12 20.25C11.25 20.25 10.43 19.25 9.9 17.5H12C12.42 17.5 12.75 17.17 12.75 16.75C12.75 16.33 12.42 16 12 16H9.55C9.36 15.05 9.25 14.01 9.25 12.95H12C12.42 12.95 12.75 12.62 12.75 12.2C12.75 11.78 12.42 11.45 12 11.45H9.25C9.3 10.21 9.48 9.03 9.79 8H14.21C14.34 8.44 14.45 8.91 14.54 9.4C14.61 9.81 15 10.08 15.41 10.01C15.82 9.94 16.09 9.55 16.02 9.14C15.95 8.75 15.87 8.37 15.77 8H18.23C18.75 8.86 19.09 9.84 19.21 10.89C19.26 11.31 19.63 11.6 20.05 11.55C20.46 11.5 20.76 11.13 20.71 10.71C20.07 5.91 16.37 2.25 12 2.25ZM12 3.75C12.8 3.75 13.68 4.83 14.21 6.5H9.79C10.32 4.83 11.2 3.75 12 3.75ZM8.23 6.5H5.77C6.65 5.42 7.8 4.61 9.11 4.17C8.76 4.79 8.46 5.58 8.23 6.5ZM5.77 17.5H8.23C8.46 18.42 8.76 19.21 9.11 19.83C7.8 19.39 6.65 18.58 5.77 17.5ZM4.86 16C4.15 14.77 3.75 13.4 3.75 12C3.75 10.6 4.15 9.23 4.86 8H8.23C7.92 9.24 7.75 10.59 7.75 12C7.75 13.41 7.92 14.76 8.23 16H4.86Z" fill="currentColor"></path>

  <path d="M17.95 12.05C18.22 11.82 18.62 11.82 18.89 12.05L19.55 12.6C19.78 12.79 20.1 12.84 20.37 12.71L21.12 12.36C21.45 12.2 21.84 12.33 22.02 12.65L22.52 13.52C22.7 13.83 22.64 14.23 22.37 14.47L21.77 15.02C21.55 15.22 21.46 15.54 21.55 15.83C21.6 15.98 21.64 16.14 21.67 16.3C21.73 16.59 21.95 16.83 22.24 16.91L23.02 17.14C23.37 17.24 23.59 17.58 23.53 17.94L23.36 18.93C23.3 19.29 22.98 19.55 22.62 19.54L21.8 19.51C21.5 19.5 21.22 19.66 21.07 19.92C20.98 20.06 20.88 20.19 20.77 20.32C20.58 20.55 20.54 20.87 20.68 21.14L21.05 21.88C21.21 22.2 21.09 22.59 20.78 22.78L19.92 23.29C19.6 23.48 19.19 23.41 18.96 23.12L18.44 22.48C18.25 22.25 17.95 22.15 17.66 22.22C17.5 22.26 17.34 22.29 17.17 22.31C16.88 22.35 16.63 22.56 16.53 22.84L16.26 23.61C16.14 23.95 15.79 24.15 15.43 24.07L14.46 23.84C14.1 23.76 13.86 23.43 13.89 23.07L13.96 22.25C13.99 21.95 13.84 21.66 13.59 21.5C13.45 21.41 13.32 21.31 13.19 21.2C12.96 21.01 12.64 20.96 12.37 21.09L11.62 21.44C11.29 21.6 10.9 21.47 10.72 21.15L10.22 20.28C10.04 19.97 10.1 19.57 10.37 19.33L10.97 18.78C11.19 18.58 11.28 18.26 11.19 17.97C11.14 17.82 11.1 17.66 11.07 17.5C11.01 17.21 10.79 16.97 10.5 16.89L9.72 16.66C9.37 16.56 9.15 16.22 9.21 15.86L9.38 14.87C9.44 14.51 9.76 14.25 10.12 14.26L10.94 14.29C11.24 14.3 11.52 14.14 11.67 13.88C11.76 13.74 11.86 13.61 11.97 13.48C12.16 13.25 12.2 12.93 12.06 12.66L11.69 11.92C11.53 11.6 11.65 11.21 11.96 11.02L12.82 10.51C13.14 10.32 13.55 10.39 13.78 10.68L14.3 11.32C14.49 11.55 14.79 11.65 15.08 11.58C15.24 11.54 15.4 11.51 15.57 11.49C15.86 11.45 16.11 11.24 16.21 10.96L16.48 10.19C16.6 9.85 16.95 9.65 17.31 9.73L18.28 9.96C18.64 10.04 18.88 10.37 18.85 10.73L18.78 11.55C18.75 11.75 18.81 11.94 18.95 12.08ZM16.37 19.75C17.95 19.75 19.23 18.47 19.23 16.89C19.23 15.31 17.95 14.03 16.37 14.03C14.79 14.03 13.51 15.31 13.51 16.89C13.51 18.47 14.79 19.75 16.37 19.75Z" fill="currentColor"></path>
</svg>